<?xml version="1.0" encoding="UTF-8" standalone="no"?>
<!DOCTYPE svg PUBLIC "-//W3C//DTD SVG 1.1//EN" "http://www.w3.org/Graphics/SVG/1.1/DTD/svg11.dtd">
<svg width="135" height="40" viewBox="0 0 135 40" version="1.1" xmlns="http://www.w3.org/2000/svg" xmlns:xlink="http://www.w3.org/1999/xlink" xml:space="preserve" xmlns:serif="http://www.serif.com/" style="fill-rule:evenodd;clip-rule:evenodd;stroke-linejoin:round;stroke-miterlimit:2;">
    <g transform="matrix(0.413567,0,0,0.413567,5.38062,1.57882)">
        <path d="M66.522,11.742L77.476,11.742C87.219,11.742 95.129,19.652 95.129,29.395L95.129,67.912C95.129,77.655 87.219,85.565 77.476,85.565L76.613,85.565C71.598,84.781 69.423,83.277 67.743,82.006L53.816,70.555C53.098,69.978 52.068,69.978 51.35,70.555L46.826,74.276L34.083,63.798C33.367,63.219 32.335,63.219 31.619,63.798L13.915,79.371C10.353,82.269 7.996,81.734 6.468,81.566C2.52,78.326 0,73.411 0,67.912L0,29.395C0,19.652 7.91,11.742 17.654,11.742L28.584,11.742L28.564,11.786L28.196,12.86L28.081,13.228L27.585,15.429L27.517,15.814L27.299,18.018L27.27,18.623L27.265,18.835L27.286,19.845L27.336,20.438L27.459,21.364L27.615,22.199L27.801,22.967L28.042,23.799L28.667,25.56L28.874,26.088L29.963,28.389L30.347,29.096L31.607,31.258L32.089,32.038L33.847,34.626L34.1,34.969L36.388,37.946L37.127,38.862L39.738,41.915L40.275,42.503L42.428,44.819L43.28,45.702L44.689,47.102L44.407,47.338L44.23,47.497C43.752,47.943 43.298,48.417 42.873,48.915C42.668,49.156 42.473,49.405 42.289,49.661C42.007,50.053 41.755,50.465 41.534,50.894C41.422,51.117 41.321,51.346 41.232,51.579C41.003,52.175 40.865,52.802 40.823,53.439L40.815,53.99C40.835,54.766 40.993,55.532 41.282,56.253C41.574,56.983 42.001,57.652 42.54,58.226C42.932,58.643 43.378,59.007 43.867,59.306C44.283,59.561 44.726,59.77 45.188,59.93C46.19,60.27 47.254,60.391 48.307,60.285L48.312,60.285C49.211,60.198 50.084,59.938 50.885,59.521C51.23,59.338 51.559,59.126 51.867,58.885C52.75,58.199 53.434,57.289 53.848,56.25C54.173,55.44 54.332,54.575 54.318,53.704L54.292,53.248C54.233,52.647 54.09,52.056 53.866,51.495C53.769,51.251 53.659,51.012 53.536,50.779C53.308,50.351 53.048,49.94 52.759,49.55C52.627,49.371 52.49,49.196 52.349,49.025C51.879,48.464 51.373,47.933 50.834,47.438L50.452,47.113L51.098,46.476L53.872,43.579L54.831,42.526L56.322,40.848L57.292,39.714L58.675,38.029L59.612,36.852L60.987,35.013L61.681,34.062L62.666,32.589L63.486,31.335L65.032,28.643L65.916,26.877L65.941,26.823L66.618,25.185C66.627,25.164 66.635,25.142 66.641,25.12L67.37,22.846L67.446,22.515L67.763,20.705L67.824,20.215L67.843,19.915L67.865,18.782L67.859,18.571L67.801,17.556L67.729,16.768L67.37,14.496C67.364,14.466 67.357,14.436 67.349,14.406L66.888,12.726L66.729,12.259L66.522,11.742ZM71.729,59.774C69.45,59.816 67.588,61.678 67.546,63.957C67.579,66.238 69.447,68.105 71.729,68.138C74.01,68.105 75.878,66.238 75.913,63.957C75.871,61.678 74.008,59.816 71.729,59.774Z" style="fill:url(#_Radial1);"/>
    </g>
    <g transform="matrix(0.413567,0,0,0.413567,5.38062,1.57882)">
        <path d="M207.646,74.498L195.189,47.832C194.149,45.61 193.529,44.798 192.488,43.856L191.476,42.943C190.668,42.16 190.138,41.435 190.138,40.574C190.138,39.341 191.114,38.303 192.893,38.303L203.708,38.303C205.405,38.303 206.463,39.186 206.463,40.504C206.463,41.24 206.125,41.792 205.697,42.333C205.19,42.976 204.529,43.602 204.529,44.745C204.529,45.461 204.738,46.175 205.14,47.087L212.574,64.495L219.242,47.525C219.652,46.396 219.932,45.402 219.932,44.606C219.932,43.367 219.259,42.862 218.74,42.308C218.288,41.827 217.927,41.319 217.927,40.504C217.927,39.173 219.01,38.303 220.468,38.303L227.128,38.303C228.995,38.303 229.883,39.269 229.883,40.504C229.883,41.294 229.428,42.027 228.532,42.817L227.59,43.591C226.278,44.663 225.671,46.213 224.982,47.817L214.883,72.146C213.69,74.99 211.913,78.939 209.2,82.179C206.443,85.469 202.726,88.028 197.692,88.028C193.477,88.028 190.925,86.015 190.925,83.115C190.925,80.458 192.89,78.341 195.472,78.341C196.886,78.341 197.621,79.009 198.367,79.696C198.984,80.262 199.61,80.844 200.844,80.844C201.988,80.844 203.054,80.36 204.021,79.578C205.497,78.384 206.733,76.505 207.646,74.498ZM38.137,85.565L17.654,85.565C13.575,85.57 9.619,84.156 6.468,81.566C7.996,81.734 10.353,82.269 13.915,79.371L31.619,63.798C32.335,63.219 33.367,63.219 34.083,63.798L46.826,74.276L51.35,70.555C52.068,69.978 53.098,69.978 53.816,70.555L67.743,82.006C69.423,83.277 71.598,84.781 76.613,85.565L67.348,85.565C66.53,85.555 65.735,85.29 65.074,84.808L64.911,84.683L52.655,74.505L40.56,84.683C39.877,85.245 39.021,85.556 38.137,85.565ZM280.844,74.403C286.451,74.403 291.045,72.482 294.628,68.648C298.209,64.82 300,60.212 300,54.824C300,49.565 298.298,45.244 294.907,41.858C291.516,38.473 287.117,36.773 281.703,36.773C276.002,36.773 271.34,38.624 267.709,42.312C264.077,46.003 262.26,50.474 262.26,55.727C262.26,60.932 263.994,65.345 267.455,68.964C270.919,72.586 275.38,74.403 280.844,74.403ZM233.431,73.986C236.673,73.986 238.978,71.803 238.978,68.656C238.978,65.583 236.597,63.396 233.431,63.396C230.113,63.396 227.739,65.587 227.739,68.656C227.739,71.8 230.115,73.986 233.431,73.986ZM244.975,68.998L245.765,68.164C246.703,67.252 247.005,66.331 247.005,63.791L247.005,48.776C247.005,46.58 246.707,45.6 245.775,44.761L244.847,43.929C243.937,43.126 243.638,42.627 243.638,41.825C243.638,40.685 244.522,39.75 245.944,39.426L252.247,37.896C252.85,37.75 253.53,37.608 254.057,37.608C254.782,37.608 255.376,37.846 255.792,38.26C256.209,38.675 256.454,39.271 256.454,40.018L256.454,63.791C256.454,66.188 256.745,67.303 257.746,68.145C257.762,68.159 257.777,68.174 257.791,68.19L258.496,69.011C259.381,69.872 259.748,70.443 259.748,71.228C259.748,72.629 258.692,73.43 256.994,73.43L246.322,73.43C244.704,73.43 243.638,72.634 243.638,71.228C243.638,70.439 244.006,69.863 244.975,68.998ZM173.641,68.999L174.43,68.164C175.369,67.252 175.671,66.331 175.671,63.791L175.671,32.441C175.671,30.315 175.446,29.271 174.451,28.433L173.498,27.511C172.677,26.713 172.377,26.218 172.377,25.42C172.377,24.278 173.265,23.347 174.609,23.021L180.84,21.492C181.444,21.346 182.123,21.203 182.651,21.203C183.371,21.203 183.98,21.42 184.415,21.831C184.851,22.244 185.119,22.857 185.119,23.683L185.119,63.791C185.119,66.194 185.418,67.245 186.423,68.154L187.227,69.005C188.118,69.872 188.415,70.439 188.415,71.228C188.415,71.81 188.237,72.279 187.921,72.637C187.475,73.141 186.728,73.43 185.731,73.43L175.06,73.43C174.064,73.43 173.316,73.141 172.869,72.637C172.554,72.279 172.377,71.81 172.377,71.228C172.377,70.438 172.67,69.866 173.641,68.999ZM144.583,52.854L144.583,63.652C144.583,65.279 144.905,66.781 146.245,68.018L147.112,68.859C148.083,69.801 148.378,70.365 148.378,71.228C148.378,72.547 147.321,73.43 145.623,73.43L133.591,73.43C131.893,73.43 130.836,72.547 130.836,71.228C130.836,70.204 131.137,69.719 132.107,68.854L132.971,68.015C133.976,67.105 134.632,65.864 134.632,63.652L134.632,34.805C134.632,33.047 134.243,31.609 132.97,30.438L132.102,29.597C131.21,28.731 130.836,28.162 130.836,27.297C130.836,25.899 131.897,25.026 133.591,25.026L165.821,25.026C167.052,25.026 168.135,25.3 168.826,25.978C169.307,26.45 169.614,27.115 169.649,28.038L170.151,35.478C170.201,36.408 169.926,37.184 169.39,37.662C169.02,37.991 168.523,38.188 167.897,38.188C167.108,38.188 166.503,37.89 165.963,37.376C165.478,36.914 165.046,36.265 164.558,35.501C163.381,33.62 162.833,32.943 161.578,32.063C159.832,30.775 157.171,30.332 152.141,30.332C149.238,30.332 147.406,30.459 146.252,30.756C145.506,30.949 145.075,31.199 144.845,31.566C144.608,31.942 144.583,32.417 144.583,32.997L144.583,47.617L152.141,47.617C153.949,47.617 155.221,47.29 156.695,45.276L156.703,45.264C157.294,44.512 157.722,43.958 158.129,43.591C158.602,43.162 159.058,42.959 159.661,42.959C160.86,42.975 161.838,43.963 161.843,45.162L161.843,55.241C161.843,56.591 160.791,57.512 159.661,57.512C159.099,57.512 158.643,57.312 158.168,56.892C157.759,56.533 157.33,55.994 156.774,55.275C155.161,53.187 154.022,52.854 152.141,52.854L144.583,52.854ZM272.283,52.599C272.283,48.983 273.071,46.384 274.703,44.821C276.316,43.278 278.049,42.497 279.912,42.497C282.475,42.497 284.785,43.932 286.868,46.752C288.996,49.636 290.049,53.533 290.049,58.438C290.049,62.058 289.259,64.681 287.624,66.289C286.013,67.875 284.281,68.679 282.419,68.679C279.856,68.679 277.548,67.233 275.464,64.391C273.335,61.483 272.283,57.55 272.283,52.599ZM71.729,59.774C69.45,59.816 67.588,61.678 67.546,63.957C67.579,66.238 69.447,68.105 71.729,68.138C74.01,68.105 75.878,66.238 75.913,63.957C75.871,61.678 74.008,59.816 71.729,59.774ZM44.689,47.102L43.28,45.702L42.428,44.819L40.275,42.503L39.738,41.915L37.127,38.862L36.388,37.946L34.1,34.969L33.847,34.626L32.089,32.038L31.607,31.258L30.347,29.096L29.963,28.389L28.874,26.088L28.667,25.56L28.042,23.799L27.801,22.967L27.615,22.199L27.459,21.364L27.336,20.438L27.286,19.845L27.265,18.835L27.27,18.623L27.299,18.018L27.517,15.814L27.585,15.429L28.081,13.228L28.196,12.86L28.564,11.786L28.682,11.508L29.269,10.219L29.675,9.452L30.242,8.518L30.806,7.687L31.208,7.158L31.672,6.6L32.182,6.039L32.618,5.6L33.682,4.664L34.46,4.027C34.478,4.011 34.498,3.997 34.517,3.983L35.437,3.361L36.169,2.895L37.557,2.164C37.577,2.152 37.602,2.141 37.624,2.131L39.592,1.314L39.774,1.246L41.524,0.733L42.263,0.568L43.262,0.367L43.925,0.266L44.941,0.14L45.634,0.079L47.009,0.006L47.548,0L48.568,0.021L48.834,0.036L50.312,0.159L52.268,0.434L52.494,0.482L54.427,0.963L54.994,1.132L55.625,1.35L56.393,1.641L57,1.898L57.892,2.318L58.454,2.607L59.464,3.2L59.841,3.432L61.219,4.438L61.614,4.781L62.574,5.655L62.622,5.703L63.436,6.577L63.717,6.893L64.673,8.163L64.867,8.466L65.626,9.748L65.854,10.187L66.282,11.143L66.729,12.259L66.888,12.726L67.349,14.406C67.358,14.435 67.365,14.466 67.37,14.496L67.729,16.768L67.801,17.556L67.859,18.571L67.865,18.782L67.843,19.915L67.824,20.215L67.763,20.705L67.446,22.515L67.37,22.846L66.641,25.12C66.635,25.142 66.627,25.164 66.618,25.185L65.941,26.823L65.916,26.877L65.032,28.643L63.486,31.335L62.666,32.589L61.681,34.062L60.987,35.013L59.612,36.852L58.675,38.029L57.292,39.714L56.322,40.848L54.831,42.526L53.872,43.579L51.098,46.476L50.452,47.113L50.834,47.438C51.373,47.934 51.879,48.464 52.349,49.025C52.491,49.196 52.627,49.371 52.759,49.55C53.048,49.94 53.308,50.351 53.536,50.779C53.658,51.011 53.769,51.251 53.866,51.495C54.087,52.056 54.237,52.649 54.292,53.248L54.318,53.704C54.332,54.575 54.172,55.441 53.848,56.25C53.434,57.289 52.75,58.199 51.867,58.885C51.559,59.125 51.23,59.338 50.885,59.521C50.084,59.938 49.211,60.198 48.312,60.285L48.307,60.285C47.254,60.391 46.19,60.27 45.188,59.93C44.726,59.77 44.283,59.561 43.867,59.306C43.378,59.007 42.932,58.644 42.54,58.226C42.001,57.653 41.574,56.983 41.282,56.253C40.993,55.532 40.835,54.766 40.815,53.99L40.823,53.439C40.865,52.802 41.003,52.175 41.232,51.579C41.321,51.345 41.422,51.116 41.534,50.894C41.754,50.464 42.007,50.053 42.289,49.661C42.473,49.405 42.669,49.156 42.873,48.915C43.298,48.417 43.751,47.944 44.23,47.497L44.407,47.338L44.689,47.102ZM251.193,33.044C254.442,33.044 256.74,31.215 256.74,28.061C256.74,24.982 254.444,23.149 251.193,23.149C247.866,23.149 245.572,24.983 245.572,28.061C245.572,31.139 247.867,33.044 251.193,33.044Z" style="fill:rgb(36,23,91);"/>
    </g>
    <g transform="matrix(0.413567,0,0,0.413567,5.38062,1.57882)">
        <path d="M52.655,74.505L64.911,84.683C65.612,85.252 66.487,85.564 67.39,85.565L38.095,85.565C38.995,85.565 39.866,85.254 40.56,84.683L52.655,74.505ZM47.625,50.485L47.737,50.517C47.772,50.535 47.803,50.56 47.835,50.582L47.928,50.664C48.157,50.875 48.38,51.097 48.594,51.324C48.745,51.485 48.892,51.651 49.033,51.822C49.213,52.039 49.381,52.266 49.534,52.502C49.6,52.606 49.661,52.712 49.719,52.822C49.769,52.917 49.814,53.015 49.853,53.115C49.923,53.289 49.975,53.472 49.991,53.658L49.988,54.008C49.941,54.648 49.588,55.228 49.041,55.564C48.691,55.776 48.297,55.906 47.89,55.943L47.457,55.956L47.092,55.924C46.922,55.899 46.754,55.858 46.591,55.802C46.425,55.745 46.266,55.671 46.116,55.58L45.831,55.371C45.495,55.084 45.266,54.692 45.182,54.259C45.168,54.186 45.156,54.112 45.148,54.038L45.138,53.705C45.143,53.614 45.157,53.524 45.177,53.436C45.227,53.241 45.299,53.052 45.389,52.873C45.506,52.648 45.639,52.431 45.788,52.225C46.035,51.892 46.302,51.574 46.588,51.274C46.773,51.079 46.961,50.89 47.158,50.709L47.299,50.582C47.396,50.517 47.397,50.517 47.508,50.485L47.625,50.485ZM46.908,3.963L46.953,3.959L46.953,42.97L46.856,42.79C45.572,40.414 44.377,37.992 43.272,35.528C42.376,33.533 41.565,31.502 40.84,29.439C40.261,27.796 39.772,26.122 39.375,24.426C39.066,23.078 38.83,21.711 38.733,20.33C38.695,19.74 38.684,19.15 38.699,18.559C38.708,18.045 38.729,17.532 38.762,17.018C38.813,16.211 38.895,15.405 39.013,14.606C39.107,13.977 39.223,13.35 39.366,12.73C39.48,12.238 39.612,11.749 39.763,11.268C39.981,10.573 40.241,9.894 40.545,9.231C40.656,8.992 40.775,8.755 40.901,8.522C41.654,7.127 42.676,5.842 44.014,4.982C44.884,4.417 45.876,4.067 46.908,3.963ZM51.967,4.061L54.591,4.81C55.812,5.255 56.974,5.847 58.052,6.573C59.518,7.562 60.781,8.822 61.774,10.285C62.356,11.155 62.839,12.087 63.215,13.064C63.761,14.508 64.099,16.023 64.218,17.563C64.253,17.966 64.273,18.37 64.281,18.775C64.29,19.15 64.288,19.527 64.258,19.902C64.183,20.742 64.025,21.573 63.786,22.382C63.594,23.044 63.367,23.695 63.106,24.333C62.782,25.126 62.422,25.905 62.026,26.665C61.151,28.355 60.145,29.971 59.067,31.534C57.731,33.455 56.307,35.313 54.8,37.102C53.163,39.054 51.455,40.947 49.681,42.776C50.885,40.519 52.009,38.219 53.05,35.882C53.629,34.58 54.175,33.264 54.688,31.935C55.253,30.475 55.762,28.995 56.214,27.496C56.552,26.374 56.845,25.238 57.092,24.092C57.301,23.108 57.466,22.114 57.568,21.114C57.653,20.28 57.685,19.441 57.664,18.605C57.656,18.093 57.637,17.581 57.607,17.069C57.484,15.012 57.171,12.961 56.571,10.988C56.344,10.239 56.068,9.507 55.744,8.795C54.976,7.122 53.904,5.558 52.453,4.417L51.967,4.061Z" style="fill:white;"/>
    </g>
    <g transform="matrix(0.449438,0,0,0.449438,0,0)">
        <g transform="matrix(0.920187,0,0,0.920187,11.9719,3.51287)">
            <path d="M66.515,11.741L77.468,11.741C87.21,11.741 95.119,19.65 95.119,29.392L95.119,67.905C95.119,77.647 87.21,85.557 77.468,85.557L76.605,85.557C71.591,84.772 69.416,83.269 67.736,81.998L53.811,70.548C53.093,69.971 52.063,69.971 51.345,70.548L46.821,74.268L34.08,63.791C33.363,63.213 32.332,63.213 31.615,63.791L13.914,79.363C10.352,82.261 7.995,81.726 6.467,81.558C2.52,78.318 0,73.404 0,67.905L0,29.392C0,19.65 7.909,11.741 17.653,11.741L28.581,11.741L28.561,11.785L28.193,12.859L28.078,13.227L27.582,15.427L27.514,15.813L27.296,18.016L27.267,18.621L27.263,18.833L27.284,19.843L27.333,20.435L27.456,21.362L27.613,22.196L27.798,22.965L28.039,23.796L28.665,25.557L28.871,26.086L29.96,28.386L30.344,29.093L31.604,31.255L32.086,32.035L33.843,34.623L34.097,34.966L36.384,37.942L37.123,38.858L39.734,41.911L40.271,42.499L42.423,44.815L43.276,45.697L44.685,47.097L44.402,47.333L44.226,47.492C43.747,47.938 43.293,48.412 42.868,48.91C42.664,49.151 42.469,49.4 42.284,49.656C42.002,50.047 41.75,50.46 41.53,50.889C41.418,51.112 41.317,51.34 41.228,51.573C40.998,52.169 40.861,52.797 40.819,53.434L40.811,53.984C40.831,54.76 40.989,55.526 41.277,56.247C41.789,57.515 42.696,58.586 43.862,59.3C44.278,59.555 44.722,59.764 45.183,59.924C46.185,60.264 47.249,60.385 48.302,60.279L48.307,60.279C49.205,60.192 50.079,59.932 50.879,59.515C51.225,59.332 51.554,59.12 51.862,58.879C52.744,58.192 53.428,57.283 53.843,56.245C54.167,55.435 54.326,54.569 54.312,53.698L54.287,53.243C54.228,52.641 54.084,52.051 53.86,51.49C53.763,51.246 53.653,51.007 53.53,50.774C53.302,50.346 53.043,49.935 52.754,49.545C52.622,49.366 52.485,49.191 52.344,49.02C51.873,48.459 51.367,47.929 50.828,47.433L50.447,47.108L51.093,46.471L53.866,43.575L54.825,42.522L56.316,40.844L57.286,39.71L58.669,38.026L59.606,36.848L60.981,35.01L61.675,34.059L62.659,32.586L63.48,31.331L65.025,28.64L65.909,26.875L65.935,26.82L66.611,25.182C66.62,25.161 66.628,25.139 66.634,25.117L67.363,22.844L67.44,22.513L67.756,20.703L67.817,20.213L67.836,19.913L67.858,18.78L67.852,18.569L67.794,17.554L67.722,16.766L67.363,14.494C67.357,14.464 67.352,14.434 67.342,14.404L66.881,12.724L66.722,12.257L66.515,11.741ZM71.722,59.768C69.444,59.809 67.581,61.672 67.539,63.95C67.583,66.227 69.445,68.088 71.722,68.131C74.003,68.098 75.87,66.231 75.905,63.95C75.872,61.668 74.004,59.8 71.722,59.768Z" style="fill:url(#_Radial2);"/>
        </g>
        <g transform="matrix(0.920187,0,0,0.920187,11.9719,3.51287)">
            <path d="M207.646,74.498L195.189,47.832C194.149,45.61 193.529,44.798 192.488,43.856L191.476,42.943C190.668,42.16 190.138,41.435 190.138,40.574C190.138,39.341 191.114,38.303 192.893,38.303L203.708,38.303C205.405,38.303 206.463,39.186 206.463,40.504C206.463,41.24 206.125,41.792 205.697,42.333C205.19,42.976 204.529,43.602 204.529,44.745C204.529,45.461 204.738,46.175 205.14,47.087L212.574,64.495L219.242,47.525C219.652,46.396 219.932,45.402 219.932,44.606C219.932,43.367 219.259,42.862 218.74,42.308C218.288,41.827 217.927,41.319 217.927,40.504C217.927,39.173 219.01,38.303 220.468,38.303L227.128,38.303C228.995,38.303 229.883,39.269 229.883,40.504C229.883,41.294 229.428,42.027 228.532,42.817L227.59,43.591C226.278,44.663 225.671,46.213 224.982,47.817L214.883,72.146C213.69,74.99 211.913,78.939 209.2,82.179C206.443,85.469 202.726,88.028 197.692,88.028C193.477,88.028 190.925,86.015 190.925,83.115C190.925,80.458 192.89,78.341 195.472,78.341C196.886,78.341 197.621,79.009 198.367,79.696C198.984,80.262 199.61,80.844 200.844,80.844C201.988,80.844 203.054,80.36 204.021,79.578C205.497,78.384 206.733,76.505 207.646,74.498ZM41.294,84.053L40.556,84.674C39.873,85.236 39.018,85.548 38.133,85.557L17.653,85.557C13.574,85.562 9.618,84.148 6.467,81.558C7.995,81.725 10.352,82.261 13.914,79.363L31.615,63.791C32.332,63.213 33.363,63.213 34.08,63.791L46.821,74.268L51.345,70.548C52.063,69.971 53.093,69.971 53.811,70.548L67.736,81.998C69.416,83.269 71.591,84.772 76.605,85.557L67.341,85.557C66.523,85.547 65.728,85.282 65.067,84.799L64.905,84.674L64.217,84.103C64.162,84.036 64.101,83.974 64.035,83.918C63.256,83.266 53.39,75.092 53.39,75.092C52.961,74.736 52.334,74.738 51.906,75.095C51.478,75.452 51.93,75.125 41.433,83.918C41.384,83.96 41.337,84.005 41.294,84.053ZM280.844,74.403C286.451,74.403 291.045,72.482 294.628,68.648C298.209,64.82 300,60.212 300,54.824C300,49.565 298.298,45.244 294.907,41.858C291.516,38.473 287.117,36.773 281.703,36.773C276.002,36.773 271.34,38.624 267.709,42.312C264.077,46.003 262.26,50.474 262.26,55.727C262.26,60.932 263.994,65.345 267.455,68.964C270.919,72.586 275.38,74.403 280.844,74.403ZM233.431,73.986C236.673,73.986 238.978,71.803 238.978,68.656C238.978,65.583 236.597,63.396 233.431,63.396C230.113,63.396 227.739,65.587 227.739,68.656C227.739,71.8 230.115,73.986 233.431,73.986ZM244.975,68.998L245.765,68.164C246.703,67.252 247.005,66.331 247.005,63.791L247.005,48.776C247.005,46.58 246.707,45.6 245.775,44.761L244.847,43.929C243.937,43.126 243.638,42.627 243.638,41.825C243.638,40.685 244.522,39.75 245.944,39.426L252.247,37.896C252.85,37.75 253.53,37.608 254.057,37.608C254.782,37.608 255.376,37.846 255.792,38.26C256.209,38.675 256.454,39.271 256.454,40.018L256.454,63.791C256.454,66.188 256.745,67.303 257.746,68.145C257.762,68.159 257.777,68.174 257.791,68.19L258.496,69.011C259.381,69.872 259.748,70.443 259.748,71.228C259.748,72.629 258.692,73.43 256.994,73.43L246.322,73.43C244.704,73.43 243.638,72.634 243.638,71.228C243.638,70.439 244.006,69.863 244.975,68.998ZM173.641,68.999L174.43,68.164C175.369,67.252 175.671,66.331 175.671,63.791L175.671,32.441C175.671,30.315 175.446,29.271 174.451,28.433L173.498,27.511C172.677,26.713 172.377,26.218 172.377,25.42C172.377,24.278 173.265,23.347 174.609,23.021L180.84,21.492C181.444,21.346 182.123,21.203 182.651,21.203C183.371,21.203 183.98,21.42 184.415,21.831C184.851,22.244 185.119,22.857 185.119,23.683L185.119,63.791C185.119,66.194 185.418,67.245 186.423,68.154L187.227,69.005C188.118,69.872 188.415,70.439 188.415,71.228C188.415,71.81 188.237,72.279 187.921,72.637C187.475,73.141 186.728,73.43 185.731,73.43L175.06,73.43C174.064,73.43 173.316,73.141 172.869,72.637C172.554,72.279 172.377,71.81 172.377,71.228C172.377,70.438 172.67,69.866 173.641,68.999ZM144.583,52.854L144.583,63.652C144.583,65.279 144.905,66.781 146.245,68.018L147.112,68.859C148.083,69.801 148.378,70.365 148.378,71.228C148.378,72.547 147.321,73.43 145.623,73.43L133.591,73.43C131.893,73.43 130.836,72.547 130.836,71.228C130.836,70.204 131.137,69.719 132.107,68.854L132.971,68.015C133.976,67.105 134.632,65.864 134.632,63.652L134.632,34.805C134.632,33.047 134.243,31.609 132.97,30.438L132.102,29.597C131.21,28.731 130.836,28.162 130.836,27.297C130.836,25.899 131.897,25.026 133.591,25.026L165.821,25.026C167.052,25.026 168.135,25.3 168.826,25.978C169.307,26.45 169.614,27.115 169.649,28.038L170.151,35.478C170.201,36.408 169.926,37.184 169.39,37.662C169.02,37.991 168.523,38.188 167.897,38.188C167.108,38.188 166.503,37.89 165.963,37.376C165.478,36.914 165.046,36.265 164.558,35.501C163.381,33.62 162.833,32.943 161.578,32.063C159.832,30.775 157.171,30.332 152.141,30.332C149.238,30.332 147.406,30.459 146.252,30.756C145.506,30.949 145.075,31.199 144.845,31.566C144.608,31.942 144.583,32.417 144.583,32.997L144.583,47.617L152.141,47.617C153.949,47.617 155.221,47.29 156.695,45.276L156.703,45.264C157.294,44.512 157.722,43.958 158.129,43.591C158.602,43.162 159.058,42.959 159.661,42.959C160.86,42.975 161.838,43.963 161.843,45.162L161.843,55.241C161.843,56.591 160.791,57.512 159.661,57.512C159.099,57.512 158.643,57.312 158.168,56.892C157.759,56.533 157.33,55.994 156.774,55.275C155.161,53.187 154.022,52.854 152.141,52.854L144.583,52.854ZM272.283,52.599C272.283,48.983 273.071,46.384 274.703,44.821C276.316,43.278 278.049,42.497 279.912,42.497C282.475,42.497 284.785,43.932 286.868,46.752C288.996,49.636 290.049,53.533 290.049,58.438C290.049,62.058 289.259,64.681 287.624,66.289C286.013,67.875 284.281,68.679 282.419,68.679C279.856,68.679 277.548,67.233 275.464,64.391C273.335,61.483 272.283,57.55 272.283,52.599ZM71.722,59.768C69.444,59.809 67.581,61.672 67.539,63.95C67.583,66.227 69.445,68.088 71.722,68.131C74.003,68.098 75.87,66.231 75.905,63.95C75.872,61.668 74.004,59.8 71.722,59.768ZM44.685,47.097L43.276,45.697L42.423,44.815L40.271,42.499L39.734,41.911L37.123,38.858L36.384,37.942L34.097,34.966L33.843,34.623L32.086,32.035L31.604,31.255L30.344,29.093L29.96,28.386L28.871,26.086L28.665,25.557L28.039,23.796L27.798,22.965L27.613,22.196L27.456,21.362L27.333,20.435L27.284,19.843L27.263,18.833L27.267,18.621L27.296,18.016L27.514,15.813L27.582,15.427L28.078,13.227L28.193,12.859L28.561,11.785L28.68,11.507L29.266,10.218L29.672,9.451L30.239,8.518L30.803,7.686L31.205,7.157L31.669,6.599L32.178,6.038L32.615,5.599L33.679,4.663L34.456,4.027C34.475,4.011 34.494,3.997 34.514,3.983L35.434,3.361L36.165,2.895L37.553,2.164C37.574,2.151 37.598,2.141 37.62,2.131L39.588,1.314L39.77,1.245L41.52,0.733L42.259,0.568L43.257,0.367L43.92,0.266L44.936,0.14L45.629,0.079L47.004,0.006L47.543,0L48.564,0.021L48.829,0.036L50.307,0.159L52.263,0.434L52.489,0.482L54.421,0.963L54.989,1.132L55.619,1.35L56.387,1.64L56.994,1.898L57.886,2.318L58.448,2.607L59.458,3.2L59.835,3.432L61.212,4.437L61.607,4.78L62.568,5.655L62.615,5.702L63.43,6.576L63.71,6.892L64.666,8.162L64.861,8.465L65.62,9.747L65.848,10.186L66.275,11.142L66.722,12.257L66.881,12.724L67.342,14.404C67.351,14.434 67.358,14.464 67.363,14.494L67.722,16.766L67.794,17.554L67.852,18.569L67.858,18.78L67.836,19.913L67.817,20.213L67.756,20.703L67.44,22.513L67.363,22.844L66.634,25.117C66.628,25.139 66.62,25.161 66.611,25.182L65.935,26.82L65.909,26.875L65.025,28.64L63.48,31.331L62.659,32.586L61.675,34.059L60.981,35.01L59.606,36.848L58.669,38.025L57.286,39.71L56.316,40.844L54.825,42.522L53.866,43.575L51.093,46.471L50.447,47.108L50.828,47.433C51.367,47.929 51.873,48.459 52.344,49.02C52.485,49.191 52.622,49.366 52.754,49.545C53.043,49.935 53.302,50.346 53.53,50.774C53.653,51.006 53.763,51.246 53.86,51.49C54.082,52.051 54.231,52.644 54.287,53.243L54.312,53.698C54.326,54.57 54.167,55.436 53.843,56.245C53.428,57.283 52.744,58.192 51.862,58.879C51.554,59.12 51.225,59.333 50.879,59.515C50.079,59.932 49.205,60.192 48.307,60.279L48.302,60.279C47.249,60.385 46.185,60.264 45.183,59.924C44.722,59.764 44.279,59.555 43.862,59.3C43.374,59.001 42.928,58.638 42.536,58.22C41.997,57.647 41.57,56.977 41.277,56.247C40.989,55.526 40.831,54.76 40.811,53.984L40.819,53.434C40.861,52.797 40.998,52.169 41.228,51.573C41.317,51.339 41.418,51.111 41.53,50.889C41.75,50.459 42.003,50.048 42.284,49.656C42.468,49.4 42.664,49.151 42.868,48.91C43.293,48.412 43.747,47.938 44.226,47.492L44.402,47.333L44.685,47.097ZM251.193,33.044C254.442,33.044 256.74,31.215 256.74,28.061C256.74,24.982 254.444,23.149 251.193,23.149C247.866,23.149 245.572,24.983 245.572,28.061C245.572,31.139 247.867,33.044 251.193,33.044Z" style="fill:rgb(36,23,91);"/>
        </g>
        <g transform="matrix(0.920187,0,0,0.920187,11.9719,3.51287)">
            <path d="M40.556,84.674L51.906,75.095C52.334,74.738 52.961,74.736 53.39,75.092L64.905,84.674C65.605,85.244 66.48,85.556 67.383,85.557L38.092,85.557C38.991,85.557 39.862,85.245 40.556,84.674ZM47.62,50.48L47.732,50.512C47.768,50.53 47.798,50.555 47.83,50.577L47.923,50.659C48.152,50.87 48.375,51.091 48.589,51.319C48.74,51.48 48.887,51.645 49.028,51.817C49.208,52.033 49.376,52.26 49.529,52.497C49.595,52.601 49.656,52.706 49.714,52.817C49.764,52.912 49.809,53.01 49.848,53.11C49.918,53.283 49.97,53.466 49.986,53.653L49.983,54.003C49.936,54.643 49.583,55.223 49.036,55.559C48.686,55.77 48.292,55.9 47.885,55.938L47.452,55.95L47.088,55.918C46.917,55.893 46.749,55.852 46.586,55.796C46.42,55.74 46.261,55.665 46.111,55.574L45.826,55.365C45.491,55.078 45.262,54.686 45.177,54.253C45.163,54.18 45.152,54.107 45.144,54.033L45.133,53.699C45.139,53.609 45.153,53.52 45.172,53.431C45.222,53.236 45.294,53.047 45.385,52.868C45.501,52.642 45.635,52.426 45.783,52.22C46.195,51.675 46.654,51.168 47.154,50.703L47.294,50.577C47.391,50.512 47.392,50.512 47.503,50.48L47.62,50.48ZM46.903,3.962L46.949,3.959L46.949,42.965L46.851,42.786C45.567,40.411 44.372,37.988 43.268,35.524C42.372,33.53 41.561,31.499 40.836,29.436C40.257,27.793 39.768,26.119 39.371,24.423C39.062,23.076 38.826,21.709 38.729,20.328C38.691,19.738 38.68,19.148 38.695,18.557C38.704,18.043 38.725,17.53 38.758,17.017C38.809,16.209 38.891,15.404 39.009,14.605C39.102,13.975 39.22,13.349 39.362,12.729C39.476,12.236 39.608,11.748 39.759,11.267C39.976,10.572 40.237,9.893 40.541,9.23C40.652,8.991 40.771,8.754 40.896,8.521C41.649,7.126 42.671,5.841 44.009,4.982C44.878,4.416 45.871,4.066 46.903,3.962ZM51.962,4.061L54.586,4.809C55.806,5.255 56.968,5.847 58.046,6.572C59.512,7.561 60.775,8.821 61.767,10.284C62.35,11.154 62.833,12.086 63.209,13.063C63.755,14.507 64.092,16.022 64.212,17.561C64.247,17.964 64.266,18.369 64.274,18.773C64.284,19.148 64.281,19.525 64.251,19.9C64.177,20.74 64.019,21.57 63.78,22.379C63.587,23.041 63.36,23.692 63.1,24.33C62.775,25.124 62.415,25.902 62.02,26.663C61.145,28.352 60.138,29.968 59.061,31.531C57.725,33.452 56.302,35.31 54.794,37.099C53.157,39.051 51.45,40.943 49.676,42.772C50.88,40.515 52.003,38.216 53.045,35.879C53.624,34.577 54.17,33.261 54.683,31.932C55.247,30.472 55.756,28.991 56.209,27.493C56.545,26.371 56.841,25.236 57.086,24.089C57.295,23.106 57.46,22.112 57.562,21.112C57.647,20.279 57.679,19.441 57.658,18.603C57.65,18.091 57.631,17.579 57.601,17.068C57.478,15.01 57.166,12.959 56.566,10.986C56.338,10.238 56.062,9.506 55.738,8.794C54.97,7.122 53.899,5.558 52.448,4.416L51.962,4.061Z" style="fill:white;"/>
        </g>
    </g>
    <defs>
        <radialGradient id="_Radial1" cx="0" cy="0" r="1" gradientUnits="userSpaceOnUse" gradientTransform="matrix(68.9126,0,0,68.9126,50.51,48.332)"><stop offset="0" style="stop-color:rgb(186,123,240);stop-opacity:1"/><stop offset="0.45" style="stop-color:rgb(153,107,236);stop-opacity:1"/><stop offset="1" style="stop-color:rgb(80,70,228);stop-opacity:1"/></radialGradient>
        <radialGradient id="_Radial2" cx="0" cy="0" r="1" gradientUnits="userSpaceOnUse" gradientTransform="matrix(68.9056,0,0,68.9056,50.504,48.327)"><stop offset="0" style="stop-color:rgb(186,123,240);stop-opacity:1"/><stop offset="0.45" style="stop-color:rgb(153,107,236);stop-opacity:1"/><stop offset="1" style="stop-color:rgb(80,70,228);stop-opacity:1"/></radialGradient>
    </defs>
</svg>
