<?xml version="1.0" encoding="UTF-8" standalone="no"?>
<!DOCTYPE svg PUBLIC "-//W3C//DTD SVG 1.1//EN" "http://www.w3.org/Graphics/SVG/1.1/DTD/svg11.dtd">
<svg width="135" height="40" viewBox="0 0 135 40" version="1.1" xmlns="http://www.w3.org/2000/svg" xmlns:xlink="http://www.w3.org/1999/xlink" xml:space="preserve" xmlns:serif="http://www.serif.com/" style="fill-rule:evenodd;clip-rule:evenodd;stroke-linejoin:round;stroke-miterlimit:2;">
    <g transform="matrix(0.423152,0,0,0.423152,3.94295,1.209)">
        <path d="M66.522,11.742L77.476,11.742C87.219,11.742 95.129,19.652 95.129,29.395L95.129,67.912C95.129,77.655 87.219,85.565 77.476,85.565L76.613,85.565C71.598,84.781 69.423,83.277 67.743,82.006L53.816,70.555C53.098,69.978 52.068,69.978 51.35,70.555L46.826,74.276L34.083,63.798C33.367,63.219 32.335,63.219 31.619,63.798L13.915,79.371C10.353,82.269 7.996,81.734 6.468,81.566C2.52,78.326 0,73.411 0,67.912L0,29.395C0,19.652 7.91,11.742 17.654,11.742L28.584,11.742L28.564,11.786L28.196,12.86L28.081,13.228L27.585,15.429L27.517,15.814L27.299,18.018L27.27,18.623L27.265,18.835L27.286,19.845L27.336,20.438L27.459,21.364L27.615,22.199L27.801,22.967L28.042,23.799L28.667,25.56L28.874,26.088L29.963,28.389L30.347,29.096L31.607,31.258L32.089,32.038L33.847,34.626L34.1,34.969L36.388,37.946L37.127,38.862L39.738,41.915L40.275,42.503L42.428,44.819L43.28,45.702L44.689,47.102L44.407,47.338L44.23,47.497C43.752,47.943 43.298,48.417 42.873,48.915C42.668,49.156 42.473,49.405 42.289,49.661C42.007,50.053 41.755,50.465 41.534,50.894C41.422,51.117 41.321,51.346 41.232,51.579C41.003,52.175 40.865,52.802 40.823,53.439L40.815,53.99C40.835,54.766 40.993,55.532 41.282,56.253C41.574,56.983 42.001,57.652 42.54,58.226C42.932,58.643 43.378,59.007 43.867,59.306C44.283,59.561 44.726,59.77 45.188,59.93C46.19,60.27 47.254,60.391 48.307,60.285L48.312,60.285C49.211,60.198 50.084,59.938 50.885,59.521C51.23,59.338 51.559,59.126 51.867,58.885C52.75,58.199 53.434,57.289 53.848,56.25C54.173,55.44 54.332,54.575 54.318,53.704L54.292,53.248C54.233,52.647 54.09,52.056 53.866,51.495C53.769,51.251 53.659,51.012 53.536,50.779C53.308,50.351 53.048,49.94 52.759,49.55C52.627,49.371 52.49,49.196 52.349,49.025C51.879,48.464 51.373,47.933 50.834,47.438L50.452,47.113L51.098,46.476L53.872,43.579L54.831,42.526L56.322,40.848L57.292,39.714L58.675,38.029L59.612,36.852L60.987,35.013L61.681,34.062L62.666,32.589L63.486,31.335L65.032,28.643L65.916,26.877L65.941,26.823L66.618,25.185C66.627,25.164 66.635,25.142 66.641,25.12L67.37,22.846L67.446,22.515L67.763,20.705L67.824,20.215L67.843,19.915L67.865,18.782L67.859,18.571L67.801,17.556L67.729,16.768L67.37,14.496C67.364,14.466 67.357,14.436 67.349,14.406L66.888,12.726L66.729,12.259L66.522,11.742ZM71.729,59.774C69.45,59.816 67.588,61.678 67.546,63.957C67.579,66.238 69.447,68.105 71.729,68.138C74.01,68.105 75.878,66.238 75.913,63.957C75.871,61.678 74.008,59.816 71.729,59.774Z" style="fill:url(#_Radial1);"/>
    </g>
    <g transform="matrix(0.423152,0,0,0.423152,3.94295,1.209)">
        <path d="M207.646,74.498L195.189,47.832C194.149,45.61 193.529,44.798 192.488,43.856L191.476,42.943C190.668,42.16 190.138,41.435 190.138,40.574C190.138,39.341 191.114,38.303 192.893,38.303L203.708,38.303C205.405,38.303 206.463,39.186 206.463,40.504C206.463,41.24 206.125,41.792 205.697,42.333C205.19,42.976 204.529,43.602 204.529,44.745C204.529,45.461 204.738,46.175 205.14,47.087L212.574,64.495L219.242,47.525C219.652,46.396 219.932,45.402 219.932,44.606C219.932,43.367 219.259,42.862 218.74,42.308C218.288,41.827 217.927,41.319 217.927,40.504C217.927,39.173 219.01,38.303 220.468,38.303L227.128,38.303C228.995,38.303 229.883,39.269 229.883,40.504C229.883,41.294 229.428,42.027 228.532,42.817L227.59,43.591C226.278,44.663 225.671,46.213 224.982,47.817L214.883,72.146C213.69,74.99 211.913,78.939 209.2,82.179C206.443,85.469 202.726,88.028 197.692,88.028C193.477,88.028 190.925,86.015 190.925,83.115C190.925,80.458 192.89,78.341 195.472,78.341C196.886,78.341 197.621,79.009 198.367,79.696C198.984,80.262 199.61,80.844 200.844,80.844C201.988,80.844 203.054,80.36 204.021,79.578C205.497,78.384 206.733,76.505 207.646,74.498ZM63.494,85.565L41.984,85.565C40.882,85.565 40.728,84.521 41.437,83.927C51.936,75.132 51.911,75.103 51.911,75.103C52.338,74.745 52.966,74.744 53.395,75.1C53.824,75.456 63.262,83.274 64.041,83.927C64.75,84.521 64.597,85.565 63.494,85.565ZM280.844,74.403C286.451,74.403 291.045,72.482 294.628,68.648C298.209,64.82 300,60.212 300,54.824C300,49.565 298.298,45.244 294.907,41.858C291.516,38.473 287.117,36.773 281.703,36.773C276.002,36.773 271.34,38.624 267.709,42.312C264.077,46.003 262.26,50.474 262.26,55.727C262.26,60.932 263.994,65.345 267.455,68.964C270.919,72.586 275.38,74.403 280.844,74.403ZM233.431,73.986C236.673,73.986 238.978,71.803 238.978,68.656C238.978,65.583 236.597,63.396 233.431,63.396C230.113,63.396 227.739,65.587 227.739,68.656C227.739,71.8 230.115,73.986 233.431,73.986ZM244.975,68.998L245.765,68.164C246.703,67.252 247.005,66.331 247.005,63.791L247.005,48.776C247.005,46.58 246.707,45.6 245.775,44.761L244.847,43.929C243.937,43.126 243.638,42.627 243.638,41.825C243.638,40.685 244.522,39.75 245.944,39.426L252.247,37.896C252.85,37.75 253.53,37.608 254.057,37.608C254.782,37.608 255.376,37.846 255.792,38.26C256.209,38.675 256.454,39.271 256.454,40.018L256.454,63.791C256.454,66.188 256.745,67.303 257.746,68.145C257.762,68.159 257.777,68.174 257.791,68.19L258.496,69.011C259.381,69.872 259.748,70.443 259.748,71.228C259.748,72.629 258.692,73.43 256.994,73.43L246.322,73.43C244.704,73.43 243.638,72.634 243.638,71.228C243.638,70.439 244.006,69.863 244.975,68.998ZM173.641,68.999L174.43,68.164C175.369,67.252 175.671,66.331 175.671,63.791L175.671,32.441C175.671,30.315 175.446,29.271 174.451,28.433L173.498,27.511C172.677,26.713 172.377,26.218 172.377,25.42C172.377,24.278 173.265,23.347 174.609,23.021L180.84,21.492C181.444,21.346 182.123,21.203 182.651,21.203C183.371,21.203 183.98,21.42 184.415,21.831C184.851,22.244 185.119,22.857 185.119,23.683L185.119,63.791C185.119,66.194 185.418,67.245 186.423,68.154L187.227,69.005C188.118,69.872 188.415,70.439 188.415,71.228C188.415,71.81 188.237,72.279 187.921,72.637C187.475,73.141 186.728,73.43 185.731,73.43L175.06,73.43C174.064,73.43 173.316,73.141 172.869,72.637C172.554,72.279 172.377,71.81 172.377,71.228C172.377,70.438 172.67,69.866 173.641,68.999ZM144.583,52.854L144.583,63.652C144.583,65.279 144.905,66.781 146.245,68.018L147.112,68.859C148.083,69.801 148.378,70.365 148.378,71.228C148.378,72.547 147.321,73.43 145.623,73.43L133.591,73.43C131.893,73.43 130.836,72.547 130.836,71.228C130.836,70.204 131.137,69.719 132.107,68.854L132.971,68.015C133.976,67.105 134.632,65.864 134.632,63.652L134.632,34.805C134.632,33.047 134.243,31.609 132.97,30.438L132.102,29.597C131.21,28.731 130.836,28.162 130.836,27.297C130.836,25.899 131.897,25.026 133.591,25.026L165.821,25.026C167.052,25.026 168.135,25.3 168.826,25.978C169.307,26.45 169.614,27.115 169.649,28.038L170.151,35.478C170.201,36.408 169.926,37.184 169.39,37.662C169.02,37.991 168.523,38.188 167.897,38.188C167.108,38.188 166.503,37.89 165.963,37.376C165.478,36.914 165.046,36.265 164.558,35.501C163.381,33.62 162.833,32.943 161.578,32.063C159.832,30.775 157.171,30.332 152.141,30.332C149.238,30.332 147.406,30.459 146.252,30.756C145.506,30.949 145.075,31.199 144.845,31.566C144.608,31.942 144.583,32.417 144.583,32.997L144.583,47.617L152.141,47.617C153.949,47.617 155.221,47.29 156.695,45.276L156.703,45.264C157.294,44.512 157.722,43.958 158.129,43.591C158.602,43.162 159.058,42.959 159.661,42.959C160.86,42.975 161.838,43.963 161.843,45.162L161.843,55.241C161.843,56.591 160.791,57.512 159.661,57.512C159.099,57.512 158.643,57.312 158.168,56.892C157.759,56.533 157.33,55.994 156.774,55.275C155.161,53.187 154.022,52.854 152.141,52.854L144.583,52.854ZM272.283,52.599C272.283,48.983 273.071,46.384 274.703,44.821C276.316,43.278 278.049,42.497 279.912,42.497C282.475,42.497 284.785,43.932 286.868,46.752C288.996,49.636 290.049,53.533 290.049,58.438C290.049,62.058 289.259,64.681 287.624,66.289C286.013,67.875 284.281,68.679 282.419,68.679C279.856,68.679 277.548,67.233 275.464,64.391C273.335,61.483 272.283,57.55 272.283,52.599ZM47.625,50.485L47.737,50.517C47.772,50.535 47.803,50.56 47.835,50.582L47.928,50.664C48.157,50.875 48.38,51.097 48.594,51.324C48.745,51.485 48.892,51.651 49.033,51.822C49.213,52.039 49.381,52.266 49.534,52.502C49.6,52.606 49.661,52.712 49.719,52.822C49.769,52.917 49.814,53.015 49.853,53.115C49.923,53.289 49.975,53.472 49.991,53.658L49.988,54.008C49.941,54.648 49.588,55.228 49.041,55.564C48.691,55.776 48.297,55.906 47.89,55.943L47.457,55.956L47.092,55.924C46.922,55.899 46.754,55.858 46.591,55.802C46.425,55.745 46.266,55.671 46.116,55.58L45.831,55.371C45.495,55.084 45.266,54.692 45.182,54.259C45.168,54.186 45.156,54.112 45.148,54.038L45.138,53.705C45.143,53.614 45.157,53.524 45.177,53.436C45.227,53.241 45.299,53.052 45.389,52.873C45.506,52.648 45.639,52.431 45.788,52.225C46.035,51.892 46.302,51.574 46.588,51.274C46.773,51.079 46.961,50.89 47.158,50.709L47.299,50.582C47.396,50.517 47.397,50.517 47.508,50.485L47.625,50.485ZM46.908,3.963L46.953,3.959L46.953,42.97L46.856,42.79C45.572,40.414 44.377,37.992 43.272,35.528C42.376,33.533 41.565,31.502 40.84,29.439C40.261,27.796 39.772,26.122 39.375,24.426C39.066,23.078 38.83,21.711 38.733,20.33C38.695,19.74 38.684,19.15 38.699,18.559C38.708,18.045 38.729,17.532 38.762,17.018C38.813,16.211 38.895,15.405 39.013,14.606C39.107,13.977 39.223,13.35 39.366,12.73C39.48,12.238 39.612,11.749 39.763,11.268C39.981,10.573 40.241,9.894 40.545,9.231C40.656,8.992 40.775,8.755 40.901,8.522C41.654,7.127 42.676,5.842 44.014,4.982C44.884,4.417 45.876,4.067 46.908,3.963ZM51.967,4.061L54.591,4.81C55.812,5.255 56.974,5.847 58.052,6.573C59.518,7.562 60.781,8.822 61.774,10.285C62.356,11.155 62.839,12.087 63.215,13.064C63.761,14.508 64.099,16.023 64.218,17.563C64.253,17.966 64.273,18.37 64.281,18.775C64.29,19.15 64.288,19.527 64.258,19.902C64.183,20.742 64.025,21.573 63.786,22.382C63.594,23.044 63.367,23.695 63.106,24.333C62.782,25.126 62.422,25.905 62.026,26.665C61.151,28.355 60.145,29.971 59.067,31.534C57.731,33.455 56.307,35.313 54.8,37.102C53.163,39.054 51.455,40.947 49.681,42.776C50.885,40.519 52.009,38.219 53.05,35.882C53.629,34.58 54.175,33.264 54.688,31.935C55.253,30.475 55.762,28.995 56.214,27.496C56.552,26.374 56.845,25.238 57.092,24.092C57.301,23.108 57.466,22.114 57.568,21.114C57.653,20.28 57.685,19.441 57.664,18.605C57.656,18.093 57.637,17.581 57.607,17.069C57.484,15.012 57.171,12.961 56.571,10.988C56.344,10.239 56.068,9.507 55.744,8.795C54.976,7.122 53.904,5.558 52.453,4.417L51.967,4.061ZM251.193,33.044C254.442,33.044 256.74,31.215 256.74,28.061C256.74,24.982 254.444,23.149 251.193,23.149C247.866,23.149 245.572,24.983 245.572,28.061C245.572,31.139 247.867,33.044 251.193,33.044Z" style="fill:white;"/>
    </g>
    <defs>
        <radialGradient id="_Radial1" cx="0" cy="0" r="1" gradientUnits="userSpaceOnUse" gradientTransform="matrix(64.8945,0,0,69.4772,47.564,48.653)"><stop offset="0" style="stop-color:rgb(186,123,240);stop-opacity:1"/><stop offset="0.43" style="stop-color:rgb(153,107,236);stop-opacity:1"/><stop offset="1" style="stop-color:rgb(80,70,228);stop-opacity:1"/></radialGradient>
    </defs>
</svg>
