<?xml version="1.0" encoding="UTF-8" standalone="no"?>
<!DOCTYPE svg PUBLIC "-//W3C//DTD SVG 1.1//EN" "http://www.w3.org/Graphics/SVG/1.1/DTD/svg11.dtd">
<svg width="100%" height="100%" viewBox="0 0 155 40" version="1.1" xmlns="http://www.w3.org/2000/svg" xmlns:xlink="http://www.w3.org/1999/xlink" xml:space="preserve" xmlns:serif="http://www.serif.com/" style="fill-rule:evenodd;clip-rule:evenodd;stroke-linejoin:round;stroke-miterlimit:2;">
    <g id="Background" transform="matrix(2.37573,0,0,5.26006,0.0119377,-1.46673)">
        <rect x="-0.009" y="0.279" width="65.247" height="7.604" style="fill:rgb(34,39,46);"/>
    </g>
    <g transform="matrix(1.06835,0,0,1.06835,-12.4308,-1.36701)">
        <g transform="matrix(1,0,0,1,-248.323,4)">
            <path d="M305.025,10.968L307.044,10.968L307.044,12.433C307.775,11.296 308.889,10.737 310.215,10.737C312.426,10.737 313.693,12.183 313.693,14.688L313.693,20.604L311.579,20.604L311.579,15.053C311.579,13.531 310.848,12.703 309.484,12.703C307.927,12.703 307.101,13.859 307.101,16.056L307.101,20.604L305.025,20.604L305.025,10.968Z" style="fill:white;fill-rule:nonzero;"/>
        </g>
        <g transform="matrix(1,0,0,1,-248.323,4)">
            <path d="M319.571,10.736C322.262,10.736 323.588,11.988 323.588,14.493L323.588,20.603L321.512,20.603L321.512,19.272C320.859,20.255 319.782,20.833 318.457,20.833C316.516,20.833 315.208,19.581 315.208,17.807C315.208,16.15 316.381,14.993 318.283,14.82L320.955,14.55C321.358,14.511 321.512,14.376 321.512,14.107L321.512,13.894C321.512,13.085 320.82,12.602 319.61,12.602C318.285,12.602 317.4,13.161 317.17,14.107L315.498,13.047C315.997,11.543 317.42,10.734 319.573,10.734L319.571,10.736ZM318.745,16.498C317.86,16.593 317.36,17.056 317.36,17.75C317.36,18.52 317.956,19.003 318.936,19.003C320.398,19.003 321.512,17.981 321.512,16.709L321.512,16.15L318.745,16.496L318.745,16.498Z" style="fill:white;fill-rule:nonzero;"/>
        </g>
        <g transform="matrix(1,0,0,1,-248.323,4)">
            <path d="M336.865,10.736C339.17,10.736 340.536,12.162 340.536,14.899L340.536,20.603L338.441,20.603L338.441,15.052C338.441,13.51 337.749,12.701 336.442,12.701C334.77,12.701 333.963,13.858 333.963,16.054L333.963,20.603L331.888,20.603L331.888,15.052C331.888,13.51 331.177,12.701 329.869,12.701C328.215,12.701 327.408,13.858 327.408,16.054L327.408,20.603L325.333,20.603L325.333,10.968L327.351,10.968L327.351,12.471C327.948,11.353 328.946,10.736 330.37,10.736C331.794,10.736 332.887,11.353 333.445,12.586C334.195,11.372 335.31,10.736 336.866,10.736L336.865,10.736Z" style="fill:white;fill-rule:nonzero;"/>
        </g>
        <g transform="matrix(1,0,0,1,-248.323,4)">
            <path d="M346.68,10.736C349.658,10.736 351.35,12.856 351.35,15.823L351.35,16.421L343.968,16.421L343.968,16.441C344.161,18.08 345.467,18.889 346.852,18.889C348.121,18.889 349.062,18.33 349.734,17.636L350.714,19.313C349.927,20.084 348.676,20.835 346.87,20.835C343.795,20.835 341.854,18.793 341.854,15.823C341.854,12.854 343.719,10.736 346.679,10.736L346.68,10.736ZM346.641,12.586C345.123,12.586 344.239,13.434 343.989,14.841L349.083,14.841C348.948,13.51 348.142,12.586 346.641,12.586Z" style="fill:white;fill-rule:nonzero;"/>
        </g>
        <g transform="matrix(1,0,0,1,-248.323,4)">
            <path d="M356.209,10.736C357.939,10.736 359.188,11.353 360.014,12.509L358.611,13.838C358.093,13.049 357.132,12.644 356.055,12.644C355.094,12.644 354.498,12.992 354.498,13.608C354.498,14.262 355.133,14.417 356.766,14.802C358.689,15.265 360.034,15.823 360.034,17.77C360.034,19.716 358.611,20.833 356.132,20.833C354.172,20.833 352.615,20.12 351.865,18.887L353.287,17.519C353.845,18.387 354.845,18.946 356.285,18.946C357.304,18.946 357.92,18.6 357.92,17.886C357.92,17.173 357.323,17.019 355.786,16.673C354.133,16.307 352.384,15.729 352.384,13.686C352.384,11.855 353.845,10.737 356.207,10.737L356.209,10.736Z" style="fill:white;fill-rule:nonzero;"/>
        </g>
        <g transform="matrix(1,0,0,1,-248.323,4)">
            <path d="M361.202,10.968L363.278,10.968L363.278,12.336C364.046,11.294 365.199,10.736 366.584,10.736C369.236,10.736 371.082,12.797 371.082,15.784C371.082,18.772 369.236,20.833 366.604,20.833C365.239,20.833 364.105,20.274 363.279,19.215L363.279,25.281L361.204,25.281L361.204,10.968L361.202,10.968ZM368.948,15.786C368.948,13.955 367.795,12.722 366.066,12.722C364.337,12.722 363.184,13.936 363.184,15.786C363.184,17.636 364.337,18.85 366.066,18.85C367.795,18.85 368.948,17.617 368.948,15.786Z" style="fill:white;fill-rule:nonzero;"/>
        </g>
        <g transform="matrix(1,0,0,1,-248.323,4)">
            <path d="M376.249,10.736C378.94,10.736 380.265,11.988 380.265,14.493L380.265,20.603L378.19,20.603L378.19,19.272C377.537,20.255 376.459,20.833 375.134,20.833C373.193,20.833 371.886,19.581 371.886,17.807C371.886,16.15 373.059,14.993 374.961,14.82L377.632,14.55C378.036,14.511 378.19,14.376 378.19,14.107L378.19,13.894C378.19,13.085 377.498,12.602 376.288,12.602C374.962,12.602 374.078,13.161 373.847,14.107L372.176,13.047C372.675,11.543 374.097,10.734 376.25,10.734L376.249,10.736ZM375.422,16.498C374.538,16.593 374.037,17.056 374.037,17.75C374.037,18.52 374.633,19.003 375.614,19.003C377.075,19.003 378.19,17.981 378.19,16.709L378.19,16.15L375.422,16.496L375.422,16.498Z" style="fill:white;fill-rule:nonzero;"/>
        </g>
        <g transform="matrix(1,0,0,1,-248.323,4)">
            <path d="M386.432,10.736C387.853,10.736 389.064,11.218 389.986,12.142L388.737,13.78C388.006,13.106 387.238,12.758 386.373,12.758C384.643,12.758 383.472,13.991 383.472,15.784C383.472,17.578 384.664,18.811 386.354,18.811C387.258,18.811 388.103,18.445 388.834,17.752L390.026,19.409C389.103,20.333 387.815,20.835 386.355,20.835C383.377,20.835 381.339,18.793 381.339,15.805C381.339,12.818 383.434,10.737 386.433,10.737L386.432,10.736Z" style="fill:white;fill-rule:nonzero;"/>
        </g>
        <g transform="matrix(1,0,0,1,-248.323,4)">
            <path d="M395.172,10.736C398.15,10.736 399.842,12.856 399.842,15.823L399.842,16.421L392.461,16.421L392.461,16.441C392.653,18.08 393.959,18.889 395.344,18.889C396.613,18.889 397.554,18.33 398.227,17.636L399.207,19.313C398.419,20.084 397.169,20.835 395.362,20.835C392.287,20.835 390.346,18.793 390.346,15.823C390.346,12.854 392.211,10.736 395.171,10.736L395.172,10.736ZM395.134,12.586C393.616,12.586 392.731,13.434 392.481,14.841L397.575,14.841C397.441,13.51 396.634,12.586 395.134,12.586Z" style="fill:white;fill-rule:nonzero;"/>
        </g>
        <g transform="matrix(1,0,0,1,-248.323,4)">
            <path d="M281.158,32C289.995,32 297.158,24.836 297.158,16C297.158,7.163 289.995,0 281.158,0C272.322,0 265.158,7.163 265.158,16C265.158,24.836 272.322,32 281.158,32Z" style="fill:rgb(28,50,255);fill-rule:nonzero;"/>
        </g>
        <g transform="matrix(1,0,0,1,-248.323,4)">
            <rect x="281.46" y="22.475" width="8.032" height="2.397" style="fill:white;fill-rule:nonzero;"/>
        </g>
        <g transform="matrix(1,0,0,1,-248.323,4)">
            <path d="M283.441,20.766L281.474,20.766L275.825,12.799L275.825,20.766L273.427,20.766L273.427,8.808L275.768,8.808L281.043,16.366L281.043,8.808L283.441,8.808L283.441,20.766Z" style="fill:white;fill-rule:nonzero;"/>
        </g>
    </g>
</svg>
