<?xml version="1.0" encoding="UTF-8" standalone="no"?>
<!DOCTYPE svg PUBLIC "-//W3C//DTD SVG 1.1//EN" "http://www.w3.org/Graphics/SVG/1.1/DTD/svg11.dtd">
<svg width="141" height="40" viewBox="0 0 141 40" version="1.1" xmlns="http://www.w3.org/2000/svg" xmlns:xlink="http://www.w3.org/1999/xlink" xml:space="preserve" xmlns:serif="http://www.serif.com/" style="fill-rule:evenodd;clip-rule:evenodd;stroke-linejoin:round;stroke-miterlimit:2;">
    <g transform="matrix(0.280112,0,0,0.280112,0,0)">
        <g transform="matrix(0.931131,0,0,0.931131,17.2172,4.93081)">
            <path d="M107.4,27.1C107.3,26.4 106.7,26 106.2,26C105.7,26 95.8,25.8 95.8,25.8C95.8,25.8 87.5,17.8 86.7,16.9C85.9,16.1 84.3,16.3 83.7,16.5C83.7,16.5 82.1,17 79.5,17.8C79.1,16.4 78.4,14.7 77.5,12.9C74.6,7.3 70.2,4.3 65,4.3C64.6,4.3 64.3,4.3 63.9,4.4C63.7,4.2 63.6,4 63.4,3.9C61.1,1.5 58.2,0.3 54.7,0.4C48,0.6 41.3,5.5 35.8,14.1C32,20.2 29.1,27.8 28.2,33.7C20.5,36.1 15.1,37.8 14.9,37.8C11,39 10.9,39.1 10.4,42.8C10.2,45.6 0,124.5 0,124.5L85.6,139.3L122.7,130.1C122.6,130.1 107.5,27.8 107.4,27.1ZM75.2,19.2C73.2,19.8 71,20.5 68.6,21.3C68.6,17.9 68.1,13.1 66.6,9.1C71.7,9.9 74.2,15.7 75.2,19.2ZM64.1,22.6C59.6,24 54.7,25.5 49.8,27C51.2,21.7 53.8,16.5 57,13C58.2,11.7 59.9,10.3 61.8,9.5C63.8,13.4 64.2,18.9 64.1,22.6ZM54.9,4.9C56.5,4.9 57.8,5.2 58.9,6C57.1,6.9 55.3,8.3 53.7,10.1C49.4,14.7 46.1,21.8 44.8,28.7C40.7,30 36.7,31.2 33.1,32.3C35.5,21.4 44.6,5.2 54.9,4.9Z" style="fill:rgb(149,191,71);fill-rule:nonzero;"/>
            <g>
                <path d="M106.2,26C105.7,26 95.8,25.8 95.8,25.8C95.8,25.8 87.5,17.8 86.7,16.9C86.4,16.6 86,16.4 85.6,16.4L85.6,139.3L122.7,130.1C122.7,130.1 107.6,27.8 107.5,27.1C107.3,26.4 106.7,26 106.2,26Z" style="fill:rgb(94,142,62);fill-rule:nonzero;"/>
                <path d="M65,45.1L60.7,61.2C60.7,61.2 55.9,59 50.2,59.4C41.8,59.9 41.8,65.2 41.8,66.5C42.3,73.7 61.2,75.3 62.3,92.2C63.1,105.5 55.3,114.6 43.9,115.3C30.3,116 22.8,108 22.8,108L25.7,95.7C25.7,95.7 33.3,101.4 39.3,101C43.2,100.8 44.7,97.5 44.5,95.3C43.9,85.9 28.5,86.5 27.5,71C26.7,58 35.2,44.9 54,43.7C61.3,43.2 65,45.1 65,45.1Z" style="fill:white;fill-rule:nonzero;"/>
            </g>
        </g>
        <g transform="matrix(0.931131,0,0,0.931131,17.2172,4.93081)">
            <path id="s_4_" d="M172.9,79.4C168.6,77.1 166.4,75.1 166.4,72.4C166.4,69 169.5,66.8 174.3,66.8C179.9,66.8 184.9,69.1 184.9,69.1L188.8,57.1C188.8,57.1 185.2,54.3 174.6,54.3C159.8,54.3 149.5,62.8 149.5,74.7C149.5,81.5 154.3,86.6 160.7,90.3C165.9,93.2 167.7,95.3 167.7,98.4C167.7,101.6 165.1,104.2 160.3,104.2C153.2,104.2 146.4,100.5 146.4,100.5L142.2,112.5C142.2,112.5 148.4,116.7 158.9,116.7C174.1,116.7 185.1,109.2 185.1,95.7C185,88.4 179.5,83.2 172.9,79.4Z" style="fill:white;fill-rule:nonzero;"/>
            <path id="h_4_" d="M233.5,54.1C226,54.1 220.1,57.7 215.6,63.1L215.4,63L221.9,29L205,29L188.5,115.6L205.4,115.6L211,86C213.2,74.8 219,67.9 224.4,67.9C228.2,67.9 229.7,70.5 229.7,74.2C229.7,76.5 229.5,79.4 229,81.7L222.6,115.6L239.5,115.6L246.1,80.6C246.8,76.9 247.3,72.5 247.3,69.5C247.4,59.9 242.4,54.1 233.5,54.1Z" style="fill:white;fill-rule:nonzero;"/>
            <path id="o_4_" d="M285.7,54.1C265.3,54.1 251.8,72.5 251.8,93C251.8,106.1 259.9,116.7 275.1,116.7C295.1,116.7 308.6,98.8 308.6,77.8C308.7,65.7 301.6,54.1 285.7,54.1ZM277.4,103.8C271.6,103.8 269.2,98.9 269.2,92.7C269.2,83 274.2,67.2 283.4,67.2C289.4,67.2 291.4,72.4 291.4,77.4C291.4,87.8 286.3,103.8 277.4,103.8Z" style="fill:white;fill-rule:nonzero;"/>
            <path id="p_4_" d="M352,54.1C340.6,54.1 334.1,64.2 334.1,64.2L333.9,64.2L334.9,55.1L319.9,55.1C319.2,61.2 317.8,70.6 316.5,77.6L304.7,139.6L321.6,139.6L326.3,114.5L326.7,114.5C326.7,114.5 330.2,116.7 336.6,116.7C356.5,116.7 369.5,96.3 369.5,75.7C369.5,64.3 364.4,54.1 352,54.1ZM335.8,104C331.4,104 328.8,101.5 328.8,101.5L331.6,85.7C333.6,75.1 339.1,68.1 345,68.1C350.2,68.1 351.8,72.9 351.8,77.4C351.8,88.4 345.3,104 335.8,104Z" style="fill:white;fill-rule:nonzero;"/>
            <path id="dot_4_" d="M393.7,29.8C388.3,29.8 384,34.1 384,39.6C384,44.6 387.2,48.1 392,48.1L392.2,48.1C397.5,48.1 402,44.5 402.1,38.3C402.1,33.4 398.8,29.8 393.7,29.8Z" style="fill:white;fill-rule:nonzero;"/>
            <path id="i_4_" d="M370,115.5L386.9,115.5L398.4,55.5L381.4,55.5L370,115.5Z" style="fill:white;fill-rule:nonzero;"/>
            <path id="f_4_" d="M441.5,55.4L429.7,55.4L430.3,52.6C431.3,46.8 434.7,41.7 440.4,41.7C443.4,41.7 445.8,42.6 445.8,42.6L449.1,29.3C449.1,29.3 446.2,27.8 439.9,27.8C433.9,27.8 427.9,29.5 423.3,33.4C417.5,38.3 414.8,45.4 413.5,52.6L413,55.4L405.1,55.4L402.6,68.2L410.5,68.2L401.5,115.6L418.4,115.6L427.4,68.2L439.1,68.2L441.5,55.4Z" style="fill:white;fill-rule:nonzero;"/>
            <path id="y_4_" d="M482.3,55.5C482.3,55.5 471.7,82.2 467,96.8L466.8,96.8C466.5,92.1 462.6,55.5 462.6,55.5L444.8,55.5L455,110.6C455.2,111.8 455.1,112.6 454.6,113.4C452.6,117.2 449.3,120.9 445.4,123.6C442.2,125.9 438.6,127.4 435.8,128.4L440.5,142.8C443.9,142.1 451.1,139.2 457.1,133.6C464.8,126.4 472,115.2 479.3,100L500,55.5L482.3,55.5Z" style="fill:white;fill-rule:nonzero;"/>
        </g>
    </g>
</svg>
